<?xml version="1.0" encoding="UTF-8" standalone="no"?>
<svg width="18px" height="18px" viewBox="0 0 18 18" version="1.1" xmlns="http://www.w3.org/2000/svg" xmlns:xlink="http://www.w3.org/1999/xlink">
    <!-- Generator: Sketch 39.1 (31720) - http://www.bohemiancoding.com/sketch -->
    <title>Group 22</title>
    <desc>Created with Sketch.</desc>
    <defs></defs>
    <g id="Page-1" stroke="none" stroke-width="1" fill="none" fill-rule="evenodd">
        <g id="414_StyleGuide-Copy-20" transform="translate(-924.000000, -211.000000)" fill="#373737">
            <g id="Group-22" transform="translate(924.000000, 211.000000)">
                <path d="M8.999775,0 C4.03723125,0 0,4.03745625 0,9 C0,13.9625438 4.03723125,18 8.999775,18 C13.9627688,18 18,13.9625438 18,9 C18,4.03745625 13.9627688,0 8.999775,0 L8.999775,0 Z M8.999775,16.81965 C4.688325,16.81965 1.18035,13.311675 1.18035,9 C1.18035,4.688325 4.688325,1.18035 8.999775,1.18035 C13.31145,1.18035 16.81965,4.688325 16.81965,9 C16.81965,13.311675 13.31145,16.81965 8.999775,16.81965 L8.999775,16.81965 Z" id="Fill-1"></path>
                <path d="M8.999775,4.11215625 C7.41684375,4.11215625 6.12928125,5.4 6.12928125,6.98293125 C6.12928125,7.3087875 6.3936,7.57310625 6.71945625,7.57310625 C7.0455375,7.57310625 7.30963125,7.3087875 7.30963125,6.98293125 C7.30963125,6.0508125 8.0679375,5.2925625 8.999775,5.2925625 C9.9320625,5.2925625 10.6903687,6.0508125 10.6903687,6.98293125 C10.6903687,7.91499375 9.9320625,8.67324375 8.999775,8.67324375 C8.67391875,8.67324375 8.409825,8.93761875 8.409825,9.263475 L8.409825,11.3191875 C8.409825,11.6452687 8.67391875,11.9094187 8.999775,11.9094187 C9.32563125,11.9094187 9.590175,11.6452687 9.590175,11.3191875 L9.590175,9.7921125 C10.8907312,9.5191875 11.8707187,8.363475 11.8707187,6.98293125 C11.8707187,5.4 10.5829312,4.11215625 8.999775,4.11215625 L8.999775,4.11215625 Z" id="Fill-4"></path>
                <path d="M9.000225,12.3183 C8.5912875,12.3183 8.2593,12.6498937 8.2593,13.059 C8.2593,13.4681625 8.5912875,13.799925 9.000225,13.799925 C9.40933125,13.799925 9.7407,13.4681625 9.7407,13.059 C9.7407,12.6498937 9.40933125,12.3183 9.000225,12.3183 L9.000225,12.3183 Z" id="Fill-5"></path>
            </g>
        </g>
    </g>
</svg>